<mxfile host="Electron" modified="2024-07-11T14:04:31.864Z" agent="Mozilla/5.0 (Windows NT 10.0; Win64; x64) AppleWebKit/537.36 (KHTML, like Gecko) draw.io/24.5.3 Chrome/124.0.6367.207 Electron/30.0.6 Safari/537.36" etag="Dj4EHPLb5jfvslE4KfbM" version="24.5.3" type="device">
  <diagram name="Page-1" id="J_dfmWZNG9LzQ3j2PCOD">
    <mxGraphModel dx="3720" dy="3120" grid="1" gridSize="10" guides="1" tooltips="1" connect="1" arrows="1" fold="1" page="1" pageScale="1" pageWidth="1654" pageHeight="1169" math="0" shadow="0">
      <root>
        <mxCell id="0" />
        <mxCell id="1" parent="0" />
        <mxCell id="g9FJ7htBdy_WGRJoM1Vm-2" style="edgeStyle=orthogonalEdgeStyle;rounded=0;orthogonalLoop=1;jettySize=auto;html=1;exitX=1;exitY=0.5;exitDx=0;exitDy=0;entryX=0.5;entryY=0;entryDx=0;entryDy=0;" parent="1" source="jy5tY1eE1KtcGN1WyZTU-2" target="g9FJ7htBdy_WGRJoM1Vm-1" edge="1">
          <mxGeometry relative="1" as="geometry">
            <mxPoint x="1280" y="160" as="sourcePoint" />
          </mxGeometry>
        </mxCell>
        <mxCell id="jy5tY1eE1KtcGN1WyZTU-2" value="&lt;font style=&quot;font-size: 24px;&quot;&gt;Controller&lt;/font&gt;" style="ellipse;whiteSpace=wrap;html=1;labelBackgroundColor=none;" parent="1" vertex="1">
          <mxGeometry x="790" y="30" width="370" height="180" as="geometry" />
        </mxCell>
        <mxCell id="jy5tY1eE1KtcGN1WyZTU-54" style="edgeStyle=orthogonalEdgeStyle;rounded=0;orthogonalLoop=1;jettySize=auto;html=1;exitX=0.5;exitY=1;exitDx=0;exitDy=0;labelBackgroundColor=none;fontColor=default;" parent="1" source="jy5tY1eE1KtcGN1WyZTU-3" target="jy5tY1eE1KtcGN1WyZTU-50" edge="1">
          <mxGeometry relative="1" as="geometry" />
        </mxCell>
        <mxCell id="SVwFaesIYEaM4QEU0-Tl-6" style="edgeStyle=orthogonalEdgeStyle;rounded=0;orthogonalLoop=1;jettySize=auto;html=1;exitX=0;exitY=0.5;exitDx=0;exitDy=0;entryX=0;entryY=0.5;entryDx=0;entryDy=0;" parent="1" source="jy5tY1eE1KtcGN1WyZTU-3" target="jy5tY1eE1KtcGN1WyZTU-53" edge="1">
          <mxGeometry relative="1" as="geometry">
            <Array as="points">
              <mxPoint x="30" y="250" />
              <mxPoint x="30" y="815" />
            </Array>
          </mxGeometry>
        </mxCell>
        <mxCell id="SVwFaesIYEaM4QEU0-Tl-7" style="edgeStyle=orthogonalEdgeStyle;rounded=0;orthogonalLoop=1;jettySize=auto;html=1;exitX=0;exitY=0.25;exitDx=0;exitDy=0;entryX=0;entryY=0.5;entryDx=0;entryDy=0;" parent="1" source="jy5tY1eE1KtcGN1WyZTU-3" target="SVwFaesIYEaM4QEU0-Tl-5" edge="1">
          <mxGeometry relative="1" as="geometry">
            <Array as="points">
              <mxPoint x="10" y="230" />
              <mxPoint x="10" y="1085" />
            </Array>
          </mxGeometry>
        </mxCell>
        <mxCell id="jy5tY1eE1KtcGN1WyZTU-3" value="&lt;font style=&quot;font-size: 24px;&quot;&gt;User&lt;/font&gt;" style="rounded=0;whiteSpace=wrap;html=1;labelBackgroundColor=none;" parent="1" vertex="1">
          <mxGeometry x="50" y="210" width="280" height="80" as="geometry" />
        </mxCell>
        <mxCell id="jy5tY1eE1KtcGN1WyZTU-25" value="DataRecolector" style="swimlane;childLayout=stackLayout;horizontal=1;startSize=40;horizontalStack=0;rounded=1;fontSize=14;fontStyle=0;strokeWidth=2;resizeParent=0;resizeLast=1;shadow=0;dashed=0;align=center;arcSize=4;whiteSpace=wrap;html=1;labelBackgroundColor=none;" parent="1" vertex="1">
          <mxGeometry x="2831.43" y="170" width="320" height="190" as="geometry" />
        </mxCell>
        <mxCell id="jy5tY1eE1KtcGN1WyZTU-26" value="&lt;span style=&quot;text-wrap: wrap;&quot;&gt;recolect_orders_and_contacts_dataframe:aDate&lt;/span&gt;&lt;div&gt;&lt;div style=&quot;&quot;&gt;&lt;span style=&quot;text-wrap: wrap;&quot;&gt;&lt;div&gt;get_empty_ordersAndContactsData&lt;/div&gt;&lt;div&gt;get_empty_orders_dataFrame&lt;/div&gt;&lt;div&gt;get_empty_contacts_dataFrame&lt;/div&gt;&lt;/span&gt;&lt;/div&gt;&lt;div&gt;&lt;div&gt;&lt;div&gt;&lt;br&gt;&lt;/div&gt;&lt;div&gt;&lt;br&gt;&lt;/div&gt;&lt;div&gt;&lt;br&gt;&lt;div&gt;&lt;span style=&quot;text-wrap: wrap;&quot;&gt;+ team: aTeam&lt;/span&gt;&lt;/div&gt;&lt;/div&gt;&lt;/div&gt;&lt;/div&gt;&lt;/div&gt;" style="align=left;strokeColor=none;fillColor=none;spacingLeft=4;fontSize=12;verticalAlign=top;resizable=0;rotatable=0;part=1;html=1;labelBackgroundColor=none;" parent="jy5tY1eE1KtcGN1WyZTU-25" vertex="1">
          <mxGeometry y="40" width="320" height="150" as="geometry" />
        </mxCell>
        <mxCell id="jy5tY1eE1KtcGN1WyZTU-28" value="OrderProcessor" style="swimlane;childLayout=stackLayout;horizontal=1;startSize=40;horizontalStack=0;rounded=1;fontSize=14;fontStyle=0;strokeWidth=2;resizeParent=0;resizeLast=1;shadow=0;dashed=0;align=center;arcSize=4;whiteSpace=wrap;html=1;labelBackgroundColor=none;" parent="1" vertex="1">
          <mxGeometry x="2340" y="180" width="320" height="190" as="geometry" />
        </mxCell>
        <mxCell id="jy5tY1eE1KtcGN1WyZTU-29" value="&lt;span style=&quot;text-align: center;&quot;&gt;&lt;span style=&quot;text-wrap: wrap;&quot;&gt;process_orders_and_contacts_dataFrame:aTable&lt;/span&gt;&lt;/span&gt;&lt;div&gt;&lt;div&gt;&lt;br&gt;&lt;/div&gt;&lt;div&gt;&lt;br&gt;&lt;/div&gt;&lt;div&gt;&lt;br&gt;&lt;/div&gt;&lt;div&gt;&lt;br&gt;&lt;div&gt;&lt;span style=&quot;text-align: center; text-wrap: wrap;&quot;&gt;+ team:aTeam-&lt;/span&gt;&lt;span style=&quot;text-align: center; text-wrap: wrap; background-color: initial;&quot;&gt;--&amp;gt;CarrierWebPage&lt;/span&gt;&lt;/div&gt;&lt;/div&gt;&lt;/div&gt;" style="align=left;strokeColor=none;fillColor=none;spacingLeft=4;fontSize=12;verticalAlign=top;resizable=0;rotatable=0;part=1;html=1;labelBackgroundColor=none;" parent="jy5tY1eE1KtcGN1WyZTU-28" vertex="1">
          <mxGeometry y="40" width="320" height="150" as="geometry" />
        </mxCell>
        <mxCell id="jy5tY1eE1KtcGN1WyZTU-30" value="Team (abstract class)" style="swimlane;childLayout=stackLayout;horizontal=1;startSize=40;horizontalStack=0;rounded=1;fontSize=14;fontStyle=0;strokeWidth=2;resizeParent=0;resizeLast=1;shadow=0;dashed=0;align=center;arcSize=4;whiteSpace=wrap;html=1;labelBackgroundColor=none;" parent="1" vertex="1">
          <mxGeometry x="1770" y="440" width="320" height="327.5" as="geometry" />
        </mxCell>
        <mxCell id="jy5tY1eE1KtcGN1WyZTU-31" value="&lt;span style=&quot;text-align: center; text-wrap: wrap;&quot;&gt;get_team_name&lt;/span&gt;&lt;div&gt;&lt;div&gt;get_column_rename_type_config_for_contacs_table&lt;/div&gt;&lt;div&gt;&lt;div&gt;apply_team_specific_changes_for_contacts_table&lt;/div&gt;&lt;div&gt;get_column_rename_type_config_for_orders_tables&lt;/div&gt;&lt;div&gt;apply_team_specific_changes_for_orders_tables&lt;/div&gt;&lt;div&gt;send_email_to_team_with_orders&lt;/div&gt;&lt;div&gt;readOrdersExcel&lt;/div&gt;&lt;div&gt;readContactsExcel&lt;/div&gt;&lt;div&gt;build_driver&lt;/div&gt;&lt;div&gt;check_if_user_and_password_are_correct&lt;/div&gt;&lt;div&gt;quit_driver&lt;/div&gt;&lt;div&gt;complete_shipping_order_form&lt;/div&gt;&lt;div&gt;complete_shipping_order_return_form&lt;/div&gt;&lt;div&gt;print_wayBill_document&lt;/div&gt;&lt;div&gt;print_label_document&lt;/div&gt;&lt;div&gt;print_return_wayBill_document&lt;/div&gt;&lt;div&gt;get_column_rename_type_config_for_not_working_days_table&lt;/div&gt;&lt;div&gt;readNotWorkingDaysExcel&lt;/div&gt;&lt;/div&gt;&lt;/div&gt;" style="align=left;strokeColor=none;fillColor=none;spacingLeft=4;fontSize=12;verticalAlign=top;resizable=0;rotatable=0;part=1;html=1;labelBackgroundColor=none;" parent="jy5tY1eE1KtcGN1WyZTU-30" vertex="1">
          <mxGeometry y="40" width="320" height="287.5" as="geometry" />
        </mxCell>
        <mxCell id="jy5tY1eE1KtcGN1WyZTU-74" style="edgeStyle=orthogonalEdgeStyle;rounded=0;orthogonalLoop=1;jettySize=auto;html=1;exitX=0.5;exitY=1;exitDx=0;exitDy=0;labelBackgroundColor=none;fontColor=default;" parent="jy5tY1eE1KtcGN1WyZTU-30" source="jy5tY1eE1KtcGN1WyZTU-31" target="jy5tY1eE1KtcGN1WyZTU-31" edge="1">
          <mxGeometry relative="1" as="geometry" />
        </mxCell>
        <mxCell id="jy5tY1eE1KtcGN1WyZTU-32" value="Team1" style="swimlane;childLayout=stackLayout;horizontal=1;startSize=40;horizontalStack=0;rounded=1;fontSize=14;fontStyle=0;strokeWidth=2;resizeParent=0;resizeLast=1;shadow=0;dashed=0;align=center;arcSize=4;whiteSpace=wrap;html=1;labelBackgroundColor=none;" parent="1" vertex="1">
          <mxGeometry x="1560" y="887.5" width="320" height="190" as="geometry" />
        </mxCell>
        <mxCell id="jy5tY1eE1KtcGN1WyZTU-33" value="method1&lt;br&gt;&lt;div&gt;&lt;div&gt;&lt;br&gt;&lt;div&gt;&lt;span style=&quot;text-align: center; text-wrap: wrap;&quot;&gt;+&lt;/span&gt;&lt;span style=&quot;background-color: initial; text-wrap: wrap; text-align: center;&quot;&gt;carrierWebpage:a&lt;/span&gt;&lt;span style=&quot;background-color: initial; text-wrap: wrap; text-align: center;&quot;&gt;CarrierWebpage&lt;/span&gt;&lt;/div&gt;&lt;/div&gt;&lt;/div&gt;" style="align=left;strokeColor=none;fillColor=none;spacingLeft=4;fontSize=12;verticalAlign=top;resizable=0;rotatable=0;part=1;html=1;labelBackgroundColor=none;" parent="jy5tY1eE1KtcGN1WyZTU-32" vertex="1">
          <mxGeometry y="40" width="320" height="150" as="geometry" />
        </mxCell>
        <mxCell id="jy5tY1eE1KtcGN1WyZTU-35" style="edgeStyle=orthogonalEdgeStyle;rounded=0;orthogonalLoop=1;jettySize=auto;html=1;entryX=0.5;entryY=0;entryDx=0;entryDy=0;labelBackgroundColor=none;fontColor=default;" parent="1" source="jy5tY1eE1KtcGN1WyZTU-31" target="jy5tY1eE1KtcGN1WyZTU-32" edge="1">
          <mxGeometry relative="1" as="geometry" />
        </mxCell>
        <mxCell id="jy5tY1eE1KtcGN1WyZTU-36" value="CarrierWebpage (abstract class)" style="swimlane;childLayout=stackLayout;horizontal=1;startSize=40;horizontalStack=0;rounded=1;fontSize=14;fontStyle=0;strokeWidth=2;resizeParent=0;resizeLast=1;shadow=0;dashed=0;align=center;arcSize=4;whiteSpace=wrap;html=1;labelBackgroundColor=none;" parent="1" vertex="1">
          <mxGeometry x="2700" y="440" width="320" height="220" as="geometry" />
        </mxCell>
        <mxCell id="jy5tY1eE1KtcGN1WyZTU-37" value="&lt;span style=&quot;background-color: initial; text-wrap: wrap;&quot;&gt;build_driver&lt;br&gt;&lt;div style=&quot;text-align: left;&quot;&gt;&lt;span style=&quot;background-color: initial; text-align: center;&quot;&gt;quit_driver&lt;/span&gt;&lt;/div&gt;&lt;/span&gt;&lt;div style=&quot;&quot;&gt;&lt;span style=&quot;text-wrap: wrap;&quot;&gt;check_if_user_and_password_are_correct&lt;br&gt;&lt;/span&gt;&lt;span style=&quot;background-color: initial; text-wrap: wrap;&quot;&gt;complete_shipping_order_form&lt;/span&gt;&lt;/div&gt;&lt;div style=&quot;&quot;&gt;&lt;span style=&quot;text-wrap: wrap; background-color: initial;&quot;&gt;complete_shipping_order_return_form&lt;br&gt;&lt;/span&gt;&lt;span style=&quot;text-wrap: wrap; background-color: initial;&quot;&gt;print_wayBill_document&lt;/span&gt;&lt;/div&gt;&lt;div style=&quot;&quot;&gt;&lt;span style=&quot;text-wrap: wrap;&quot;&gt;print_label_document&lt;/span&gt;&lt;/div&gt;&lt;div style=&quot;&quot;&gt;&lt;span style=&quot;text-wrap: wrap;&quot;&gt;print_return_wayBill_document&lt;/span&gt;&lt;/div&gt;&lt;div style=&quot;&quot;&gt;&lt;br&gt;&lt;/div&gt;" style="align=left;strokeColor=none;fillColor=none;spacingLeft=4;fontSize=12;verticalAlign=top;resizable=0;rotatable=0;part=1;html=1;labelBackgroundColor=none;" parent="jy5tY1eE1KtcGN1WyZTU-36" vertex="1">
          <mxGeometry y="40" width="320" height="180" as="geometry" />
        </mxCell>
        <mxCell id="jy5tY1eE1KtcGN1WyZTU-38" value="CarrierWebpage1" style="swimlane;childLayout=stackLayout;horizontal=1;startSize=40;horizontalStack=0;rounded=1;fontSize=14;fontStyle=0;strokeWidth=2;resizeParent=0;resizeLast=1;shadow=0;dashed=0;align=center;arcSize=4;whiteSpace=wrap;html=1;labelBackgroundColor=none;" parent="1" vertex="1">
          <mxGeometry x="2490" y="800" width="320" height="190" as="geometry" />
        </mxCell>
        <mxCell id="jy5tY1eE1KtcGN1WyZTU-39" value="&lt;div style=&quot;&quot;&gt;&lt;span style=&quot;background-color: initial; text-wrap: wrap;&quot;&gt;method1&lt;/span&gt;&lt;/div&gt;&lt;div style=&quot;&quot;&gt;&lt;span style=&quot;background-color: initial; text-wrap: wrap;&quot;&gt;&lt;br&gt;&lt;/span&gt;&lt;/div&gt;&lt;div style=&quot;&quot;&gt;&lt;span style=&quot;text-wrap: wrap;&quot;&gt;+browser:aBrowser&lt;/span&gt;&lt;span style=&quot;background-color: initial; text-wrap: wrap;&quot;&gt;&lt;br&gt;&lt;/span&gt;&lt;/div&gt;" style="align=left;strokeColor=none;fillColor=none;spacingLeft=4;fontSize=12;verticalAlign=top;resizable=0;rotatable=0;part=1;html=1;labelBackgroundColor=none;" parent="jy5tY1eE1KtcGN1WyZTU-38" vertex="1">
          <mxGeometry y="40" width="320" height="150" as="geometry" />
        </mxCell>
        <mxCell id="jy5tY1eE1KtcGN1WyZTU-40" style="edgeStyle=orthogonalEdgeStyle;rounded=0;orthogonalLoop=1;jettySize=auto;html=1;entryX=0.5;entryY=0;entryDx=0;entryDy=0;labelBackgroundColor=none;fontColor=default;" parent="1" source="jy5tY1eE1KtcGN1WyZTU-37" target="jy5tY1eE1KtcGN1WyZTU-38" edge="1">
          <mxGeometry relative="1" as="geometry" />
        </mxCell>
        <mxCell id="jy5tY1eE1KtcGN1WyZTU-42" value="CarrierWebpage2" style="swimlane;childLayout=stackLayout;horizontal=1;startSize=40;horizontalStack=0;rounded=1;fontSize=14;fontStyle=0;strokeWidth=2;resizeParent=0;resizeLast=1;shadow=0;dashed=0;align=center;arcSize=4;whiteSpace=wrap;html=1;labelBackgroundColor=none;" parent="1" vertex="1">
          <mxGeometry x="2930" y="800" width="320" height="190" as="geometry" />
        </mxCell>
        <mxCell id="jy5tY1eE1KtcGN1WyZTU-43" value="&lt;div style=&quot;&quot;&gt;&lt;span style=&quot;background-color: initial; text-wrap: wrap;&quot;&gt;method1&lt;/span&gt;&lt;/div&gt;&lt;div style=&quot;&quot;&gt;&lt;span style=&quot;background-color: initial; text-wrap: wrap;&quot;&gt;&lt;br&gt;&lt;/span&gt;&lt;/div&gt;&lt;div style=&quot;&quot;&gt;&lt;span style=&quot;text-wrap: wrap;&quot;&gt;+browser:aBrowser&lt;/span&gt;&lt;span style=&quot;background-color: initial; text-wrap: wrap;&quot;&gt;&lt;br&gt;&lt;/span&gt;&lt;/div&gt;" style="align=left;strokeColor=none;fillColor=none;spacingLeft=4;fontSize=12;verticalAlign=top;resizable=0;rotatable=0;part=1;html=1;labelBackgroundColor=none;" parent="jy5tY1eE1KtcGN1WyZTU-42" vertex="1">
          <mxGeometry y="40" width="320" height="150" as="geometry" />
        </mxCell>
        <mxCell id="jy5tY1eE1KtcGN1WyZTU-44" style="edgeStyle=orthogonalEdgeStyle;rounded=0;orthogonalLoop=1;jettySize=auto;html=1;exitX=0.5;exitY=1;exitDx=0;exitDy=0;labelBackgroundColor=none;fontColor=default;" parent="1" source="jy5tY1eE1KtcGN1WyZTU-37" target="jy5tY1eE1KtcGN1WyZTU-42" edge="1">
          <mxGeometry relative="1" as="geometry" />
        </mxCell>
        <mxCell id="jy5tY1eE1KtcGN1WyZTU-45" value="Browser (Chrome)" style="swimlane;childLayout=stackLayout;horizontal=1;startSize=40;horizontalStack=0;rounded=1;fontSize=14;fontStyle=0;strokeWidth=2;resizeParent=0;resizeLast=1;shadow=0;dashed=0;align=center;arcSize=4;whiteSpace=wrap;html=1;labelBackgroundColor=none;" parent="1" vertex="1">
          <mxGeometry x="3150" y="470" width="160" height="190" as="geometry" />
        </mxCell>
        <mxCell id="YqWiFZ8mhYs_TZGAp9Wk-2" value="build()&lt;div&gt;quit()&lt;/div&gt;&lt;div&gt;get: anURL&lt;/div&gt;" style="text;html=1;align=center;verticalAlign=middle;resizable=0;points=[];autosize=1;strokeColor=none;fillColor=none;" vertex="1" parent="jy5tY1eE1KtcGN1WyZTU-45">
          <mxGeometry y="40" width="160" height="150" as="geometry" />
        </mxCell>
        <mxCell id="jy5tY1eE1KtcGN1WyZTU-50" value="MainUserForm" style="swimlane;childLayout=stackLayout;horizontal=1;startSize=40;horizontalStack=0;rounded=1;fontSize=14;fontStyle=0;strokeWidth=2;resizeParent=0;resizeLast=1;shadow=0;dashed=0;align=center;arcSize=4;whiteSpace=wrap;html=1;labelBackgroundColor=none;" parent="1" vertex="1">
          <mxGeometry x="75" y="410" width="230" height="200" as="geometry" />
        </mxCell>
        <mxCell id="jy5tY1eE1KtcGN1WyZTU-51" value="&lt;div&gt;&lt;div&gt;&lt;div&gt;&lt;span style=&quot;background-color: initial;&quot;&gt;show()&lt;/span&gt;&lt;/div&gt;&lt;div&gt;&lt;span style=&quot;background-color: initial;&quot;&gt;hide()&lt;/span&gt;&lt;/div&gt;&lt;/div&gt;&lt;div&gt;&lt;span style=&quot;text-wrap: wrap; background-color: initial;&quot;&gt;get_selected_team_name()&lt;/span&gt;&lt;br&gt;&lt;/div&gt;&lt;div&gt;&lt;div style=&quot;&quot;&gt;&lt;span style=&quot;text-wrap: wrap;&quot;&gt;get_selected_date()&lt;/span&gt;&lt;/div&gt;&lt;/div&gt;&lt;/div&gt;&lt;div style=&quot;&quot;&gt;&lt;span style=&quot;text-wrap: wrap;&quot;&gt;&lt;br&gt;&lt;/span&gt;&lt;/div&gt;&lt;div style=&quot;&quot;&gt;&lt;span style=&quot;text-wrap: wrap; text-align: center;&quot;&gt;+LoadTableButton&lt;/span&gt;&lt;div&gt;&lt;div&gt;+ProcessOrder&lt;span style=&quot;text-align: center; text-wrap: wrap; background-color: initial;&quot;&gt;Button&lt;/span&gt;&lt;/div&gt;&lt;div&gt;+ClearTable&lt;span style=&quot;text-align: center; text-wrap: wrap; background-color: initial;&quot;&gt;Button&lt;/span&gt;&lt;/div&gt;&lt;div&gt;+ChangeConfig&lt;span style=&quot;text-align: center; text-wrap: wrap; background-color: initial;&quot;&gt;Button&lt;/span&gt;&lt;/div&gt;&lt;/div&gt;&lt;div&gt;&lt;span style=&quot;text-align: center; text-wrap: wrap; background-color: initial;&quot;&gt;+show_logConsole_button&lt;/span&gt;&lt;/div&gt;&lt;/div&gt;" style="align=left;strokeColor=none;fillColor=none;spacingLeft=4;fontSize=12;verticalAlign=top;resizable=0;rotatable=0;part=1;html=1;labelBackgroundColor=none;" parent="jy5tY1eE1KtcGN1WyZTU-50" vertex="1">
          <mxGeometry y="40" width="230" height="160" as="geometry" />
        </mxCell>
        <mxCell id="jy5tY1eE1KtcGN1WyZTU-52" value="LoginUserform" style="swimlane;childLayout=stackLayout;horizontal=1;startSize=40;horizontalStack=0;rounded=1;fontSize=14;fontStyle=0;strokeWidth=2;resizeParent=0;resizeLast=1;shadow=0;dashed=0;align=center;arcSize=4;whiteSpace=wrap;html=1;labelBackgroundColor=none;" parent="1" vertex="1">
          <mxGeometry x="105" y="700" width="170" height="190" as="geometry" />
        </mxCell>
        <mxCell id="jy5tY1eE1KtcGN1WyZTU-53" value="&lt;div&gt;&lt;span style=&quot;background-color: initial;&quot;&gt;show()&lt;/span&gt;&lt;/div&gt;&lt;span style=&quot;background-color: initial;&quot;&gt;hide()&lt;/span&gt;&lt;div&gt;&lt;span style=&quot;text-align: center; text-wrap: wrap;&quot;&gt;get_username()&lt;/span&gt;&lt;div&gt;&lt;div&gt;get_password()&lt;/div&gt;&lt;/div&gt;&lt;div&gt;&lt;br&gt;&lt;/div&gt;&lt;div&gt;+log_in_button&lt;/div&gt;&lt;/div&gt;" style="align=left;strokeColor=none;fillColor=none;spacingLeft=4;fontSize=12;verticalAlign=top;resizable=0;rotatable=0;part=1;html=1;labelBackgroundColor=none;" parent="jy5tY1eE1KtcGN1WyZTU-52" vertex="1">
          <mxGeometry y="40" width="170" height="150" as="geometry" />
        </mxCell>
        <mxCell id="jy5tY1eE1KtcGN1WyZTU-58" value="TeamFactory" style="swimlane;childLayout=stackLayout;horizontal=1;startSize=40;horizontalStack=0;rounded=1;fontSize=14;fontStyle=0;strokeWidth=2;resizeParent=0;resizeLast=1;shadow=0;dashed=0;align=center;arcSize=4;whiteSpace=wrap;html=1;labelBackgroundColor=none;" parent="1" vertex="1">
          <mxGeometry x="1440" y="480" width="180" height="190" as="geometry" />
        </mxCell>
        <mxCell id="jy5tY1eE1KtcGN1WyZTU-59" value="&lt;div style=&quot;text-align: center;&quot;&gt;&lt;span style=&quot;background-color: initial; text-wrap: wrap;&quot;&gt;build:aTeamName&lt;/span&gt;&lt;/div&gt;" style="align=left;strokeColor=none;fillColor=none;spacingLeft=4;fontSize=12;verticalAlign=top;resizable=0;rotatable=0;part=1;html=1;labelBackgroundColor=none;" parent="jy5tY1eE1KtcGN1WyZTU-58" vertex="1">
          <mxGeometry y="40" width="180" height="150" as="geometry" />
        </mxCell>
        <mxCell id="jy5tY1eE1KtcGN1WyZTU-65" value="Team2" style="swimlane;childLayout=stackLayout;horizontal=1;startSize=40;horizontalStack=0;rounded=1;fontSize=14;fontStyle=0;strokeWidth=2;resizeParent=0;resizeLast=1;shadow=0;dashed=0;align=center;arcSize=4;whiteSpace=wrap;html=1;labelBackgroundColor=none;" parent="1" vertex="1">
          <mxGeometry x="1970" y="887.5" width="320" height="190" as="geometry" />
        </mxCell>
        <mxCell id="jy5tY1eE1KtcGN1WyZTU-66" value="method1&lt;br&gt;&lt;div&gt;&lt;br&gt;&lt;div&gt;&lt;span style=&quot;text-align: center; text-wrap: wrap;&quot;&gt;+&lt;/span&gt;&lt;span style=&quot;background-color: initial; text-wrap: wrap; text-align: center;&quot;&gt;carrierWebpage:a&lt;/span&gt;&lt;span style=&quot;background-color: initial; text-wrap: wrap; text-align: center;&quot;&gt;CarrierWebpage&lt;/span&gt;&lt;/div&gt;&lt;/div&gt;" style="align=left;strokeColor=none;fillColor=none;spacingLeft=4;fontSize=12;verticalAlign=top;resizable=0;rotatable=0;part=1;html=1;labelBackgroundColor=none;" parent="jy5tY1eE1KtcGN1WyZTU-65" vertex="1">
          <mxGeometry y="40" width="320" height="150" as="geometry" />
        </mxCell>
        <mxCell id="jy5tY1eE1KtcGN1WyZTU-73" value="" style="endArrow=classic;html=1;rounded=0;entryX=0.5;entryY=1;entryDx=0;entryDy=0;labelBackgroundColor=none;fontColor=default;" parent="jy5tY1eE1KtcGN1WyZTU-65" target="jy5tY1eE1KtcGN1WyZTU-65" edge="1">
          <mxGeometry width="50" height="50" relative="1" as="geometry">
            <mxPoint x="160" y="270" as="sourcePoint" />
            <mxPoint x="50" y="160" as="targetPoint" />
          </mxGeometry>
        </mxCell>
        <mxCell id="jy5tY1eE1KtcGN1WyZTU-67" style="edgeStyle=orthogonalEdgeStyle;rounded=0;orthogonalLoop=1;jettySize=auto;html=1;entryX=0.5;entryY=0;entryDx=0;entryDy=0;labelBackgroundColor=none;fontColor=default;" parent="1" source="jy5tY1eE1KtcGN1WyZTU-31" target="jy5tY1eE1KtcGN1WyZTU-65" edge="1">
          <mxGeometry relative="1" as="geometry" />
        </mxCell>
        <mxCell id="jy5tY1eE1KtcGN1WyZTU-70" value="" style="endArrow=none;dashed=1;html=1;rounded=0;entryX=0.437;entryY=1.016;entryDx=0;entryDy=0;entryPerimeter=0;labelBackgroundColor=none;fontColor=default;" parent="1" target="jy5tY1eE1KtcGN1WyZTU-59" edge="1">
          <mxGeometry width="50" height="50" relative="1" as="geometry">
            <mxPoint x="1520" y="1157.5" as="sourcePoint" />
            <mxPoint x="1510" y="947.5" as="targetPoint" />
          </mxGeometry>
        </mxCell>
        <mxCell id="jy5tY1eE1KtcGN1WyZTU-71" value="" style="endArrow=none;dashed=1;html=1;rounded=0;labelBackgroundColor=none;fontColor=default;" parent="1" edge="1">
          <mxGeometry width="50" height="50" relative="1" as="geometry">
            <mxPoint x="1520" y="1157.5" as="sourcePoint" />
            <mxPoint x="2130" y="1157.5" as="targetPoint" />
          </mxGeometry>
        </mxCell>
        <mxCell id="jy5tY1eE1KtcGN1WyZTU-72" value="" style="endArrow=classic;html=1;rounded=0;entryX=0.5;entryY=1;entryDx=0;entryDy=0;labelBackgroundColor=none;fontColor=default;" parent="1" target="jy5tY1eE1KtcGN1WyZTU-33" edge="1">
          <mxGeometry width="50" height="50" relative="1" as="geometry">
            <mxPoint x="1720" y="1157.5" as="sourcePoint" />
            <mxPoint x="1910" y="947.5" as="targetPoint" />
          </mxGeometry>
        </mxCell>
        <mxCell id="jy5tY1eE1KtcGN1WyZTU-75" value="" style="verticalLabelPosition=bottom;verticalAlign=top;html=1;shape=mxgraph.basic.acute_triangle;dx=0.5;labelBackgroundColor=none;" parent="1" vertex="1">
          <mxGeometry x="1901.43" y="777.5" width="57.14" height="40" as="geometry" />
        </mxCell>
        <mxCell id="jy5tY1eE1KtcGN1WyZTU-76" value="" style="verticalLabelPosition=bottom;verticalAlign=top;html=1;shape=mxgraph.basic.acute_triangle;dx=0.5;labelBackgroundColor=none;" parent="1" vertex="1">
          <mxGeometry x="2831.4300000000003" y="670" width="57.14" height="40" as="geometry" />
        </mxCell>
        <mxCell id="jy5tY1eE1KtcGN1WyZTU-78" value="CarrierWebpageFactory" style="swimlane;childLayout=stackLayout;horizontal=1;startSize=40;horizontalStack=0;rounded=1;fontSize=14;fontStyle=0;strokeWidth=2;resizeParent=0;resizeLast=1;shadow=0;dashed=0;align=center;arcSize=4;whiteSpace=wrap;html=1;labelBackgroundColor=none;" parent="1" vertex="1">
          <mxGeometry x="2340" y="480" width="200" height="190" as="geometry" />
        </mxCell>
        <mxCell id="jy5tY1eE1KtcGN1WyZTU-79" value="&lt;div style=&quot;text-align: center;&quot;&gt;&lt;span style=&quot;background-color: initial; text-wrap: wrap;&quot;&gt;build:a&lt;/span&gt;&lt;span style=&quot;font-size: 14px; text-wrap: wrap; background-color: initial;&quot;&gt;CarrierWebpageName&lt;/span&gt;&lt;/div&gt;" style="align=left;strokeColor=none;fillColor=none;spacingLeft=4;fontSize=12;verticalAlign=top;resizable=0;rotatable=0;part=1;html=1;labelBackgroundColor=none;" parent="jy5tY1eE1KtcGN1WyZTU-78" vertex="1">
          <mxGeometry y="40" width="200" height="150" as="geometry" />
        </mxCell>
        <mxCell id="jy5tY1eE1KtcGN1WyZTU-80" value="" style="endArrow=classic;html=1;rounded=0;entryX=0.5;entryY=1;entryDx=0;entryDy=0;labelBackgroundColor=none;fontColor=default;" parent="1" edge="1">
          <mxGeometry width="50" height="50" relative="1" as="geometry">
            <mxPoint x="3080" y="1070" as="sourcePoint" />
            <mxPoint x="3080" y="990" as="targetPoint" />
          </mxGeometry>
        </mxCell>
        <mxCell id="jy5tY1eE1KtcGN1WyZTU-81" value="" style="endArrow=none;dashed=1;html=1;rounded=0;labelBackgroundColor=none;fontColor=default;" parent="1" edge="1">
          <mxGeometry width="50" height="50" relative="1" as="geometry">
            <mxPoint x="2440" y="1070" as="sourcePoint" />
            <mxPoint x="3080" y="1070" as="targetPoint" />
          </mxGeometry>
        </mxCell>
        <mxCell id="jy5tY1eE1KtcGN1WyZTU-82" value="" style="endArrow=classic;html=1;rounded=0;entryX=0.5;entryY=1;entryDx=0;entryDy=0;labelBackgroundColor=none;fontColor=default;" parent="1" edge="1">
          <mxGeometry width="50" height="50" relative="1" as="geometry">
            <mxPoint x="2670" y="1070" as="sourcePoint" />
            <mxPoint x="2670" y="990" as="targetPoint" />
          </mxGeometry>
        </mxCell>
        <mxCell id="jy5tY1eE1KtcGN1WyZTU-83" value="" style="endArrow=none;dashed=1;html=1;rounded=0;entryX=0.5;entryY=1;entryDx=0;entryDy=0;labelBackgroundColor=none;fontColor=default;" parent="1" target="jy5tY1eE1KtcGN1WyZTU-79" edge="1">
          <mxGeometry width="50" height="50" relative="1" as="geometry">
            <mxPoint x="2440" y="1070" as="sourcePoint" />
            <mxPoint x="2440" y="770" as="targetPoint" />
          </mxGeometry>
        </mxCell>
        <mxCell id="jy5tY1eE1KtcGN1WyZTU-85" style="edgeStyle=orthogonalEdgeStyle;rounded=0;orthogonalLoop=1;jettySize=auto;html=1;exitX=1;exitY=0.5;exitDx=0;exitDy=0;labelBackgroundColor=none;fontColor=default;" parent="1" source="jy5tY1eE1KtcGN1WyZTU-37" edge="1">
          <mxGeometry relative="1" as="geometry">
            <mxPoint x="3150" y="584.6470588235295" as="targetPoint" />
          </mxGeometry>
        </mxCell>
        <mxCell id="jy5tY1eE1KtcGN1WyZTU-87" style="edgeStyle=orthogonalEdgeStyle;rounded=0;orthogonalLoop=1;jettySize=auto;html=1;exitX=1;exitY=0.4;exitDx=0;exitDy=0;entryX=0;entryY=0.5;entryDx=0;entryDy=0;labelBackgroundColor=none;fontColor=default;exitPerimeter=0;" parent="1" source="jy5tY1eE1KtcGN1WyZTU-31" target="jy5tY1eE1KtcGN1WyZTU-79" edge="1">
          <mxGeometry relative="1" as="geometry">
            <Array as="points" />
          </mxGeometry>
        </mxCell>
        <mxCell id="jy5tY1eE1KtcGN1WyZTU-91" value="" style="endArrow=none;dashed=1;html=1;dashPattern=1 3;strokeWidth=2;rounded=0;labelBackgroundColor=none;fontColor=default;" parent="1" edge="1">
          <mxGeometry width="50" height="50" relative="1" as="geometry">
            <mxPoint x="410" y="1149" as="sourcePoint" />
            <mxPoint x="410" y="19" as="targetPoint" />
          </mxGeometry>
        </mxCell>
        <mxCell id="jy5tY1eE1KtcGN1WyZTU-92" value="" style="shape=actor;whiteSpace=wrap;html=1;labelBackgroundColor=none;" parent="1" vertex="1">
          <mxGeometry x="260" y="220" width="40" height="60" as="geometry" />
        </mxCell>
        <mxCell id="jy5tY1eE1KtcGN1WyZTU-120" style="edgeStyle=orthogonalEdgeStyle;rounded=0;orthogonalLoop=1;jettySize=auto;html=1;labelBackgroundColor=none;fontColor=default;" parent="1" source="jy5tY1eE1KtcGN1WyZTU-93" target="jy5tY1eE1KtcGN1WyZTU-94" edge="1">
          <mxGeometry relative="1" as="geometry" />
        </mxCell>
        <mxCell id="jy5tY1eE1KtcGN1WyZTU-121" style="edgeStyle=orthogonalEdgeStyle;rounded=0;orthogonalLoop=1;jettySize=auto;html=1;labelBackgroundColor=none;fontColor=default;" parent="1" source="jy5tY1eE1KtcGN1WyZTU-93" target="jy5tY1eE1KtcGN1WyZTU-107" edge="1">
          <mxGeometry relative="1" as="geometry" />
        </mxCell>
        <mxCell id="YqWiFZ8mhYs_TZGAp9Wk-17" style="edgeStyle=orthogonalEdgeStyle;rounded=0;orthogonalLoop=1;jettySize=auto;html=1;exitX=0.5;exitY=1;exitDx=0;exitDy=0;entryX=0.5;entryY=0;entryDx=0;entryDy=0;" edge="1" parent="1" source="jy5tY1eE1KtcGN1WyZTU-93" target="YqWiFZ8mhYs_TZGAp9Wk-4">
          <mxGeometry relative="1" as="geometry">
            <mxPoint x="3695.1176470588234" y="690" as="targetPoint" />
          </mxGeometry>
        </mxCell>
        <mxCell id="jy5tY1eE1KtcGN1WyZTU-93" value="Excel&lt;div&gt;Orders&lt;/div&gt;&lt;div&gt;Tracker&lt;/div&gt;" style="shape=datastore;whiteSpace=wrap;html=1;labelBackgroundColor=none;" parent="1" vertex="1">
          <mxGeometry x="3590" y="200" width="210" height="210" as="geometry" />
        </mxCell>
        <mxCell id="jy5tY1eE1KtcGN1WyZTU-94" value="OrdersTable" style="shape=table;startSize=30;container=1;collapsible=0;childLayout=tableLayout;fontSize=16;labelBackgroundColor=none;" parent="1" vertex="1">
          <mxGeometry x="3470" y="470" width="180" height="150" as="geometry" />
        </mxCell>
        <mxCell id="jy5tY1eE1KtcGN1WyZTU-95" value="" style="shape=tableRow;horizontal=0;startSize=0;swimlaneHead=0;swimlaneBody=0;top=0;left=0;bottom=0;right=0;collapsible=0;dropTarget=0;fillColor=none;points=[[0,0.5],[1,0.5]];portConstraint=eastwest;fontSize=16;labelBackgroundColor=none;" parent="jy5tY1eE1KtcGN1WyZTU-94" vertex="1">
          <mxGeometry y="30" width="180" height="40" as="geometry" />
        </mxCell>
        <mxCell id="jy5tY1eE1KtcGN1WyZTU-96" value="" style="shape=partialRectangle;html=1;whiteSpace=wrap;connectable=0;overflow=hidden;fillColor=none;top=0;left=0;bottom=0;right=0;pointerEvents=1;fontSize=16;labelBackgroundColor=none;" parent="jy5tY1eE1KtcGN1WyZTU-95" vertex="1">
          <mxGeometry width="60" height="40" as="geometry">
            <mxRectangle width="60" height="40" as="alternateBounds" />
          </mxGeometry>
        </mxCell>
        <mxCell id="jy5tY1eE1KtcGN1WyZTU-97" value="" style="shape=partialRectangle;html=1;whiteSpace=wrap;connectable=0;overflow=hidden;fillColor=none;top=0;left=0;bottom=0;right=0;pointerEvents=1;fontSize=16;labelBackgroundColor=none;" parent="jy5tY1eE1KtcGN1WyZTU-95" vertex="1">
          <mxGeometry x="60" width="60" height="40" as="geometry">
            <mxRectangle width="60" height="40" as="alternateBounds" />
          </mxGeometry>
        </mxCell>
        <mxCell id="jy5tY1eE1KtcGN1WyZTU-98" value="" style="shape=partialRectangle;html=1;whiteSpace=wrap;connectable=0;overflow=hidden;fillColor=none;top=0;left=0;bottom=0;right=0;pointerEvents=1;fontSize=16;labelBackgroundColor=none;" parent="jy5tY1eE1KtcGN1WyZTU-95" vertex="1">
          <mxGeometry x="120" width="60" height="40" as="geometry">
            <mxRectangle width="60" height="40" as="alternateBounds" />
          </mxGeometry>
        </mxCell>
        <mxCell id="jy5tY1eE1KtcGN1WyZTU-99" value="" style="shape=tableRow;horizontal=0;startSize=0;swimlaneHead=0;swimlaneBody=0;top=0;left=0;bottom=0;right=0;collapsible=0;dropTarget=0;fillColor=none;points=[[0,0.5],[1,0.5]];portConstraint=eastwest;fontSize=16;labelBackgroundColor=none;" parent="jy5tY1eE1KtcGN1WyZTU-94" vertex="1">
          <mxGeometry y="70" width="180" height="40" as="geometry" />
        </mxCell>
        <mxCell id="jy5tY1eE1KtcGN1WyZTU-100" value="" style="shape=partialRectangle;html=1;whiteSpace=wrap;connectable=0;overflow=hidden;fillColor=none;top=0;left=0;bottom=0;right=0;pointerEvents=1;fontSize=16;labelBackgroundColor=none;" parent="jy5tY1eE1KtcGN1WyZTU-99" vertex="1">
          <mxGeometry width="60" height="40" as="geometry">
            <mxRectangle width="60" height="40" as="alternateBounds" />
          </mxGeometry>
        </mxCell>
        <mxCell id="jy5tY1eE1KtcGN1WyZTU-101" value="" style="shape=partialRectangle;html=1;whiteSpace=wrap;connectable=0;overflow=hidden;fillColor=none;top=0;left=0;bottom=0;right=0;pointerEvents=1;fontSize=16;labelBackgroundColor=none;" parent="jy5tY1eE1KtcGN1WyZTU-99" vertex="1">
          <mxGeometry x="60" width="60" height="40" as="geometry">
            <mxRectangle width="60" height="40" as="alternateBounds" />
          </mxGeometry>
        </mxCell>
        <mxCell id="jy5tY1eE1KtcGN1WyZTU-102" value="" style="shape=partialRectangle;html=1;whiteSpace=wrap;connectable=0;overflow=hidden;fillColor=none;top=0;left=0;bottom=0;right=0;pointerEvents=1;fontSize=16;labelBackgroundColor=none;" parent="jy5tY1eE1KtcGN1WyZTU-99" vertex="1">
          <mxGeometry x="120" width="60" height="40" as="geometry">
            <mxRectangle width="60" height="40" as="alternateBounds" />
          </mxGeometry>
        </mxCell>
        <mxCell id="jy5tY1eE1KtcGN1WyZTU-103" value="" style="shape=tableRow;horizontal=0;startSize=0;swimlaneHead=0;swimlaneBody=0;top=0;left=0;bottom=0;right=0;collapsible=0;dropTarget=0;fillColor=none;points=[[0,0.5],[1,0.5]];portConstraint=eastwest;fontSize=16;labelBackgroundColor=none;" parent="jy5tY1eE1KtcGN1WyZTU-94" vertex="1">
          <mxGeometry y="110" width="180" height="40" as="geometry" />
        </mxCell>
        <mxCell id="jy5tY1eE1KtcGN1WyZTU-104" value="" style="shape=partialRectangle;html=1;whiteSpace=wrap;connectable=0;overflow=hidden;fillColor=none;top=0;left=0;bottom=0;right=0;pointerEvents=1;fontSize=16;labelBackgroundColor=none;" parent="jy5tY1eE1KtcGN1WyZTU-103" vertex="1">
          <mxGeometry width="60" height="40" as="geometry">
            <mxRectangle width="60" height="40" as="alternateBounds" />
          </mxGeometry>
        </mxCell>
        <mxCell id="jy5tY1eE1KtcGN1WyZTU-105" value="" style="shape=partialRectangle;html=1;whiteSpace=wrap;connectable=0;overflow=hidden;fillColor=none;top=0;left=0;bottom=0;right=0;pointerEvents=1;fontSize=16;labelBackgroundColor=none;" parent="jy5tY1eE1KtcGN1WyZTU-103" vertex="1">
          <mxGeometry x="60" width="60" height="40" as="geometry">
            <mxRectangle width="60" height="40" as="alternateBounds" />
          </mxGeometry>
        </mxCell>
        <mxCell id="jy5tY1eE1KtcGN1WyZTU-106" value="" style="shape=partialRectangle;html=1;whiteSpace=wrap;connectable=0;overflow=hidden;fillColor=none;top=0;left=0;bottom=0;right=0;pointerEvents=1;fontSize=16;labelBackgroundColor=none;" parent="jy5tY1eE1KtcGN1WyZTU-103" vertex="1">
          <mxGeometry x="120" width="60" height="40" as="geometry">
            <mxRectangle width="60" height="40" as="alternateBounds" />
          </mxGeometry>
        </mxCell>
        <mxCell id="jy5tY1eE1KtcGN1WyZTU-107" value="ContactsTable" style="shape=table;startSize=30;container=1;collapsible=0;childLayout=tableLayout;fontSize=16;labelBackgroundColor=none;" parent="1" vertex="1">
          <mxGeometry x="3750" y="470" width="180" height="150" as="geometry" />
        </mxCell>
        <mxCell id="jy5tY1eE1KtcGN1WyZTU-108" value="" style="shape=tableRow;horizontal=0;startSize=0;swimlaneHead=0;swimlaneBody=0;top=0;left=0;bottom=0;right=0;collapsible=0;dropTarget=0;fillColor=none;points=[[0,0.5],[1,0.5]];portConstraint=eastwest;fontSize=16;labelBackgroundColor=none;" parent="jy5tY1eE1KtcGN1WyZTU-107" vertex="1">
          <mxGeometry y="30" width="180" height="40" as="geometry" />
        </mxCell>
        <mxCell id="jy5tY1eE1KtcGN1WyZTU-109" value="" style="shape=partialRectangle;html=1;whiteSpace=wrap;connectable=0;overflow=hidden;fillColor=none;top=0;left=0;bottom=0;right=0;pointerEvents=1;fontSize=16;labelBackgroundColor=none;" parent="jy5tY1eE1KtcGN1WyZTU-108" vertex="1">
          <mxGeometry width="60" height="40" as="geometry">
            <mxRectangle width="60" height="40" as="alternateBounds" />
          </mxGeometry>
        </mxCell>
        <mxCell id="jy5tY1eE1KtcGN1WyZTU-110" value="" style="shape=partialRectangle;html=1;whiteSpace=wrap;connectable=0;overflow=hidden;fillColor=none;top=0;left=0;bottom=0;right=0;pointerEvents=1;fontSize=16;labelBackgroundColor=none;" parent="jy5tY1eE1KtcGN1WyZTU-108" vertex="1">
          <mxGeometry x="60" width="60" height="40" as="geometry">
            <mxRectangle width="60" height="40" as="alternateBounds" />
          </mxGeometry>
        </mxCell>
        <mxCell id="jy5tY1eE1KtcGN1WyZTU-111" value="" style="shape=partialRectangle;html=1;whiteSpace=wrap;connectable=0;overflow=hidden;fillColor=none;top=0;left=0;bottom=0;right=0;pointerEvents=1;fontSize=16;labelBackgroundColor=none;" parent="jy5tY1eE1KtcGN1WyZTU-108" vertex="1">
          <mxGeometry x="120" width="60" height="40" as="geometry">
            <mxRectangle width="60" height="40" as="alternateBounds" />
          </mxGeometry>
        </mxCell>
        <mxCell id="jy5tY1eE1KtcGN1WyZTU-112" value="" style="shape=tableRow;horizontal=0;startSize=0;swimlaneHead=0;swimlaneBody=0;top=0;left=0;bottom=0;right=0;collapsible=0;dropTarget=0;fillColor=none;points=[[0,0.5],[1,0.5]];portConstraint=eastwest;fontSize=16;labelBackgroundColor=none;" parent="jy5tY1eE1KtcGN1WyZTU-107" vertex="1">
          <mxGeometry y="70" width="180" height="40" as="geometry" />
        </mxCell>
        <mxCell id="jy5tY1eE1KtcGN1WyZTU-113" value="" style="shape=partialRectangle;html=1;whiteSpace=wrap;connectable=0;overflow=hidden;fillColor=none;top=0;left=0;bottom=0;right=0;pointerEvents=1;fontSize=16;labelBackgroundColor=none;" parent="jy5tY1eE1KtcGN1WyZTU-112" vertex="1">
          <mxGeometry width="60" height="40" as="geometry">
            <mxRectangle width="60" height="40" as="alternateBounds" />
          </mxGeometry>
        </mxCell>
        <mxCell id="jy5tY1eE1KtcGN1WyZTU-114" value="" style="shape=partialRectangle;html=1;whiteSpace=wrap;connectable=0;overflow=hidden;fillColor=none;top=0;left=0;bottom=0;right=0;pointerEvents=1;fontSize=16;labelBackgroundColor=none;" parent="jy5tY1eE1KtcGN1WyZTU-112" vertex="1">
          <mxGeometry x="60" width="60" height="40" as="geometry">
            <mxRectangle width="60" height="40" as="alternateBounds" />
          </mxGeometry>
        </mxCell>
        <mxCell id="jy5tY1eE1KtcGN1WyZTU-115" value="" style="shape=partialRectangle;html=1;whiteSpace=wrap;connectable=0;overflow=hidden;fillColor=none;top=0;left=0;bottom=0;right=0;pointerEvents=1;fontSize=16;labelBackgroundColor=none;" parent="jy5tY1eE1KtcGN1WyZTU-112" vertex="1">
          <mxGeometry x="120" width="60" height="40" as="geometry">
            <mxRectangle width="60" height="40" as="alternateBounds" />
          </mxGeometry>
        </mxCell>
        <mxCell id="jy5tY1eE1KtcGN1WyZTU-116" value="" style="shape=tableRow;horizontal=0;startSize=0;swimlaneHead=0;swimlaneBody=0;top=0;left=0;bottom=0;right=0;collapsible=0;dropTarget=0;fillColor=none;points=[[0,0.5],[1,0.5]];portConstraint=eastwest;fontSize=16;labelBackgroundColor=none;" parent="jy5tY1eE1KtcGN1WyZTU-107" vertex="1">
          <mxGeometry y="110" width="180" height="40" as="geometry" />
        </mxCell>
        <mxCell id="jy5tY1eE1KtcGN1WyZTU-117" value="" style="shape=partialRectangle;html=1;whiteSpace=wrap;connectable=0;overflow=hidden;fillColor=none;top=0;left=0;bottom=0;right=0;pointerEvents=1;fontSize=16;labelBackgroundColor=none;" parent="jy5tY1eE1KtcGN1WyZTU-116" vertex="1">
          <mxGeometry width="60" height="40" as="geometry">
            <mxRectangle width="60" height="40" as="alternateBounds" />
          </mxGeometry>
        </mxCell>
        <mxCell id="jy5tY1eE1KtcGN1WyZTU-118" value="" style="shape=partialRectangle;html=1;whiteSpace=wrap;connectable=0;overflow=hidden;fillColor=none;top=0;left=0;bottom=0;right=0;pointerEvents=1;fontSize=16;labelBackgroundColor=none;" parent="jy5tY1eE1KtcGN1WyZTU-116" vertex="1">
          <mxGeometry x="60" width="60" height="40" as="geometry">
            <mxRectangle width="60" height="40" as="alternateBounds" />
          </mxGeometry>
        </mxCell>
        <mxCell id="jy5tY1eE1KtcGN1WyZTU-119" value="" style="shape=partialRectangle;html=1;whiteSpace=wrap;connectable=0;overflow=hidden;fillColor=none;top=0;left=0;bottom=0;right=0;pointerEvents=1;fontSize=16;labelBackgroundColor=none;" parent="jy5tY1eE1KtcGN1WyZTU-116" vertex="1">
          <mxGeometry x="120" width="60" height="40" as="geometry">
            <mxRectangle width="60" height="40" as="alternateBounds" />
          </mxGeometry>
        </mxCell>
        <mxCell id="SVwFaesIYEaM4QEU0-Tl-1" value="" style="endArrow=none;dashed=1;html=1;dashPattern=1 3;strokeWidth=2;rounded=0;labelBackgroundColor=none;fontColor=default;" parent="1" edge="1">
          <mxGeometry width="50" height="50" relative="1" as="geometry">
            <mxPoint x="3390" y="1130" as="sourcePoint" />
            <mxPoint x="3390" as="targetPoint" />
          </mxGeometry>
        </mxCell>
        <mxCell id="SVwFaesIYEaM4QEU0-Tl-2" style="edgeStyle=orthogonalEdgeStyle;rounded=0;orthogonalLoop=1;jettySize=auto;html=1;exitX=1;exitY=0.25;exitDx=0;exitDy=0;entryX=0;entryY=0.5;entryDx=0;entryDy=0;labelBackgroundColor=none;fontColor=default;" parent="1" source="jy5tY1eE1KtcGN1WyZTU-26" target="jy5tY1eE1KtcGN1WyZTU-93" edge="1">
          <mxGeometry relative="1" as="geometry">
            <Array as="points">
              <mxPoint x="3310" y="248" />
              <mxPoint x="3310" y="305" />
            </Array>
          </mxGeometry>
        </mxCell>
        <mxCell id="SVwFaesIYEaM4QEU0-Tl-3" value="configs.JSON (teams specific datapath and preferences)" style="shape=datastore;whiteSpace=wrap;html=1;labelBackgroundColor=none;" parent="1" vertex="1">
          <mxGeometry x="1200" y="930" width="200" height="200" as="geometry" />
        </mxCell>
        <mxCell id="SVwFaesIYEaM4QEU0-Tl-4" value="ConfigurationUserform" style="swimlane;childLayout=stackLayout;horizontal=1;startSize=40;horizontalStack=0;rounded=1;fontSize=14;fontStyle=0;strokeWidth=2;resizeParent=0;resizeLast=1;shadow=0;dashed=0;align=center;arcSize=4;whiteSpace=wrap;html=1;labelBackgroundColor=none;" parent="1" vertex="1">
          <mxGeometry x="105" y="940" width="245" height="210" as="geometry" />
        </mxCell>
        <mxCell id="SVwFaesIYEaM4QEU0-Tl-5" value="&lt;div style=&quot;&quot;&gt;&lt;div&gt;&lt;div&gt;&lt;span style=&quot;background-color: initial;&quot;&gt;show()&lt;/span&gt;&lt;/div&gt;&lt;div&gt;&lt;span style=&quot;background-color: initial;&quot;&gt;hide()&lt;/span&gt;&lt;/div&gt;&lt;/div&gt;&lt;div&gt;get_selected_team_name()&lt;/div&gt;&lt;div&gt;get_team_excel_path&lt;span style=&quot;background-color: initial;&quot;&gt;()&lt;/span&gt;&lt;/div&gt;&lt;div&gt;get_team_orders_sheet&lt;span style=&quot;background-color: initial;&quot;&gt;()&lt;/span&gt;&lt;/div&gt;&lt;div&gt;get_team_contacts_sheet&lt;span style=&quot;background-color: initial;&quot;&gt;()&lt;/span&gt;&lt;/div&gt;&lt;div&gt;get_team_not_working_days_sheet&lt;span style=&quot;background-color: initial;&quot;&gt;()&lt;/span&gt;&lt;/div&gt;&lt;div&gt;get_team_send_email_to_medical_centers&lt;span style=&quot;background-color: initial;&quot;&gt;()&lt;/span&gt;&lt;/div&gt;&lt;div&gt;get_team_email&lt;span style=&quot;background-color: initial;&quot;&gt;()&lt;/span&gt;&lt;/div&gt;&lt;div&gt;&lt;br&gt;&lt;/div&gt;&lt;div&gt;+save_button&lt;/div&gt;&lt;/div&gt;" style="align=left;strokeColor=none;fillColor=none;spacingLeft=4;fontSize=12;verticalAlign=top;resizable=0;rotatable=0;part=1;html=1;labelBackgroundColor=none;" parent="SVwFaesIYEaM4QEU0-Tl-4" vertex="1">
          <mxGeometry y="40" width="245" height="170" as="geometry" />
        </mxCell>
        <mxCell id="g9FJ7htBdy_WGRJoM1Vm-3" style="edgeStyle=orthogonalEdgeStyle;rounded=0;orthogonalLoop=1;jettySize=auto;html=1;exitX=1;exitY=1;exitDx=0;exitDy=0;entryX=0.365;entryY=-0.004;entryDx=0;entryDy=0;entryPerimeter=0;" parent="1" source="g9FJ7htBdy_WGRJoM1Vm-1" target="jy5tY1eE1KtcGN1WyZTU-58" edge="1">
          <mxGeometry relative="1" as="geometry">
            <mxPoint x="1510" y="550" as="targetPoint" />
          </mxGeometry>
        </mxCell>
        <mxCell id="g9FJ7htBdy_WGRJoM1Vm-4" style="edgeStyle=orthogonalEdgeStyle;rounded=0;orthogonalLoop=1;jettySize=auto;html=1;exitX=1;exitY=0.5;exitDx=0;exitDy=0;entryX=0;entryY=0.75;entryDx=0;entryDy=0;" parent="1" source="g9FJ7htBdy_WGRJoM1Vm-1" target="jy5tY1eE1KtcGN1WyZTU-29" edge="1">
          <mxGeometry relative="1" as="geometry">
            <Array as="points">
              <mxPoint x="1950" y="350" />
              <mxPoint x="1950" y="332" />
            </Array>
          </mxGeometry>
        </mxCell>
        <mxCell id="g9FJ7htBdy_WGRJoM1Vm-5" style="edgeStyle=orthogonalEdgeStyle;rounded=0;orthogonalLoop=1;jettySize=auto;html=1;exitX=1;exitY=0;exitDx=0;exitDy=0;entryX=0;entryY=0.25;entryDx=0;entryDy=0;" parent="1" source="g9FJ7htBdy_WGRJoM1Vm-1" target="jy5tY1eE1KtcGN1WyZTU-26" edge="1">
          <mxGeometry relative="1" as="geometry">
            <Array as="points">
              <mxPoint x="2196" y="286" />
              <mxPoint x="2196" y="70" />
              <mxPoint x="2720" y="70" />
              <mxPoint x="2720" y="248" />
            </Array>
          </mxGeometry>
        </mxCell>
        <mxCell id="g9FJ7htBdy_WGRJoM1Vm-17" style="edgeStyle=orthogonalEdgeStyle;rounded=0;orthogonalLoop=1;jettySize=auto;html=1;entryX=0.5;entryY=0;entryDx=0;entryDy=0;exitX=0.566;exitY=1.021;exitDx=0;exitDy=0;exitPerimeter=0;" parent="1" source="YqWiFZ8mhYs_TZGAp9Wk-21" target="SVwFaesIYEaM4QEU0-Tl-3" edge="1">
          <mxGeometry relative="1" as="geometry">
            <mxPoint x="1300" y="880" as="sourcePoint" />
            <Array as="points">
              <mxPoint x="1300" y="893" />
            </Array>
          </mxGeometry>
        </mxCell>
        <mxCell id="YqWiFZ8mhYs_TZGAp9Wk-23" style="edgeStyle=orthogonalEdgeStyle;rounded=0;orthogonalLoop=1;jettySize=auto;html=1;exitX=0.726;exitY=0.021;exitDx=0;exitDy=0;entryX=0;entryY=0.25;entryDx=0;entryDy=0;exitPerimeter=0;" edge="1" parent="1" source="g9FJ7htBdy_WGRJoM1Vm-1" target="YqWiFZ8mhYs_TZGAp9Wk-19">
          <mxGeometry relative="1" as="geometry">
            <Array as="points">
              <mxPoint x="1460" y="264" />
              <mxPoint x="1460" y="108" />
            </Array>
          </mxGeometry>
        </mxCell>
        <mxCell id="g9FJ7htBdy_WGRJoM1Vm-1" value="&lt;font style=&quot;font-size: 24px;&quot;&gt;Model&lt;/font&gt;" style="ellipse;whiteSpace=wrap;html=1;labelBackgroundColor=none;" parent="1" vertex="1">
          <mxGeometry x="1190" y="260" width="370" height="180" as="geometry" />
        </mxCell>
        <mxCell id="g9FJ7htBdy_WGRJoM1Vm-9" style="edgeStyle=orthogonalEdgeStyle;rounded=0;orthogonalLoop=1;jettySize=auto;html=1;exitX=0.372;exitY=0.986;exitDx=0;exitDy=0;entryX=1;entryY=0.25;entryDx=0;entryDy=0;exitPerimeter=0;" parent="1" source="g9FJ7htBdy_WGRJoM1Vm-6" target="jy5tY1eE1KtcGN1WyZTU-51" edge="1">
          <mxGeometry relative="1" as="geometry">
            <Array as="points">
              <mxPoint x="488" y="490" />
            </Array>
          </mxGeometry>
        </mxCell>
        <mxCell id="g9FJ7htBdy_WGRJoM1Vm-10" style="edgeStyle=orthogonalEdgeStyle;rounded=0;orthogonalLoop=1;jettySize=auto;html=1;exitX=0.5;exitY=1;exitDx=0;exitDy=0;entryX=1;entryY=0.25;entryDx=0;entryDy=0;" parent="1" source="g9FJ7htBdy_WGRJoM1Vm-6" target="jy5tY1eE1KtcGN1WyZTU-53" edge="1">
          <mxGeometry relative="1" as="geometry" />
        </mxCell>
        <mxCell id="YqWiFZ8mhYs_TZGAp9Wk-3" style="edgeStyle=orthogonalEdgeStyle;rounded=0;orthogonalLoop=1;jettySize=auto;html=1;exitX=0.595;exitY=0.995;exitDx=0;exitDy=0;entryX=1;entryY=0.25;entryDx=0;entryDy=0;exitPerimeter=0;" edge="1" parent="1" source="g9FJ7htBdy_WGRJoM1Vm-6" target="SVwFaesIYEaM4QEU0-Tl-5">
          <mxGeometry relative="1" as="geometry">
            <Array as="points">
              <mxPoint x="570" y="436" />
              <mxPoint x="570" y="1047" />
            </Array>
          </mxGeometry>
        </mxCell>
        <mxCell id="YqWiFZ8mhYs_TZGAp9Wk-27" style="edgeStyle=orthogonalEdgeStyle;rounded=0;orthogonalLoop=1;jettySize=auto;html=1;exitX=1;exitY=1;exitDx=0;exitDy=0;entryX=0.5;entryY=0;entryDx=0;entryDy=0;" edge="1" parent="1" source="g9FJ7htBdy_WGRJoM1Vm-6" target="YqWiFZ8mhYs_TZGAp9Wk-25">
          <mxGeometry relative="1" as="geometry">
            <Array as="points">
              <mxPoint x="666" y="490" />
              <mxPoint x="735" y="490" />
            </Array>
          </mxGeometry>
        </mxCell>
        <mxCell id="g9FJ7htBdy_WGRJoM1Vm-6" value="&lt;font style=&quot;font-size: 24px;&quot;&gt;View&lt;/font&gt;" style="ellipse;whiteSpace=wrap;html=1;labelBackgroundColor=none;" parent="1" vertex="1">
          <mxGeometry x="350" y="260" width="370" height="180" as="geometry" />
        </mxCell>
        <mxCell id="g9FJ7htBdy_WGRJoM1Vm-8" style="edgeStyle=orthogonalEdgeStyle;rounded=0;orthogonalLoop=1;jettySize=auto;html=1;exitX=0;exitY=0.5;exitDx=0;exitDy=0;entryX=0.459;entryY=0;entryDx=0;entryDy=0;entryPerimeter=0;" parent="1" source="jy5tY1eE1KtcGN1WyZTU-2" target="g9FJ7htBdy_WGRJoM1Vm-6" edge="1">
          <mxGeometry relative="1" as="geometry" />
        </mxCell>
        <mxCell id="g9FJ7htBdy_WGRJoM1Vm-11" style="edgeStyle=orthogonalEdgeStyle;rounded=0;orthogonalLoop=1;jettySize=auto;html=1;exitX=1;exitY=0.5;exitDx=0;exitDy=0;entryX=0.432;entryY=1;entryDx=0;entryDy=0;entryPerimeter=0;" parent="1" source="jy5tY1eE1KtcGN1WyZTU-51" target="jy5tY1eE1KtcGN1WyZTU-2" edge="1">
          <mxGeometry relative="1" as="geometry" />
        </mxCell>
        <mxCell id="g9FJ7htBdy_WGRJoM1Vm-12" style="edgeStyle=orthogonalEdgeStyle;rounded=0;orthogonalLoop=1;jettySize=auto;html=1;exitX=1;exitY=0.5;exitDx=0;exitDy=0;entryX=0.5;entryY=1;entryDx=0;entryDy=0;" parent="1" source="jy5tY1eE1KtcGN1WyZTU-53" target="jy5tY1eE1KtcGN1WyZTU-2" edge="1">
          <mxGeometry relative="1" as="geometry" />
        </mxCell>
        <mxCell id="g9FJ7htBdy_WGRJoM1Vm-18" style="edgeStyle=orthogonalEdgeStyle;rounded=0;orthogonalLoop=1;jettySize=auto;html=1;entryX=0.576;entryY=0.999;entryDx=0;entryDy=0;entryPerimeter=0;" parent="1" source="SVwFaesIYEaM4QEU0-Tl-5" target="jy5tY1eE1KtcGN1WyZTU-2" edge="1">
          <mxGeometry relative="1" as="geometry">
            <Array as="points">
              <mxPoint x="1003" y="1085" />
            </Array>
          </mxGeometry>
        </mxCell>
        <mxCell id="YqWiFZ8mhYs_TZGAp9Wk-4" value="NotWorkingDatesTable" style="shape=table;startSize=30;container=1;collapsible=0;childLayout=tableLayout;fontSize=16;labelBackgroundColor=none;" vertex="1" parent="1">
          <mxGeometry x="3605" y="720" width="180" height="150" as="geometry" />
        </mxCell>
        <mxCell id="YqWiFZ8mhYs_TZGAp9Wk-5" value="" style="shape=tableRow;horizontal=0;startSize=0;swimlaneHead=0;swimlaneBody=0;top=0;left=0;bottom=0;right=0;collapsible=0;dropTarget=0;fillColor=none;points=[[0,0.5],[1,0.5]];portConstraint=eastwest;fontSize=16;labelBackgroundColor=none;" vertex="1" parent="YqWiFZ8mhYs_TZGAp9Wk-4">
          <mxGeometry y="30" width="180" height="40" as="geometry" />
        </mxCell>
        <mxCell id="YqWiFZ8mhYs_TZGAp9Wk-6" value="" style="shape=partialRectangle;html=1;whiteSpace=wrap;connectable=0;overflow=hidden;fillColor=none;top=0;left=0;bottom=0;right=0;pointerEvents=1;fontSize=16;labelBackgroundColor=none;" vertex="1" parent="YqWiFZ8mhYs_TZGAp9Wk-5">
          <mxGeometry width="60" height="40" as="geometry">
            <mxRectangle width="60" height="40" as="alternateBounds" />
          </mxGeometry>
        </mxCell>
        <mxCell id="YqWiFZ8mhYs_TZGAp9Wk-7" value="" style="shape=partialRectangle;html=1;whiteSpace=wrap;connectable=0;overflow=hidden;fillColor=none;top=0;left=0;bottom=0;right=0;pointerEvents=1;fontSize=16;labelBackgroundColor=none;" vertex="1" parent="YqWiFZ8mhYs_TZGAp9Wk-5">
          <mxGeometry x="60" width="60" height="40" as="geometry">
            <mxRectangle width="60" height="40" as="alternateBounds" />
          </mxGeometry>
        </mxCell>
        <mxCell id="YqWiFZ8mhYs_TZGAp9Wk-8" value="" style="shape=partialRectangle;html=1;whiteSpace=wrap;connectable=0;overflow=hidden;fillColor=none;top=0;left=0;bottom=0;right=0;pointerEvents=1;fontSize=16;labelBackgroundColor=none;" vertex="1" parent="YqWiFZ8mhYs_TZGAp9Wk-5">
          <mxGeometry x="120" width="60" height="40" as="geometry">
            <mxRectangle width="60" height="40" as="alternateBounds" />
          </mxGeometry>
        </mxCell>
        <mxCell id="YqWiFZ8mhYs_TZGAp9Wk-9" value="" style="shape=tableRow;horizontal=0;startSize=0;swimlaneHead=0;swimlaneBody=0;top=0;left=0;bottom=0;right=0;collapsible=0;dropTarget=0;fillColor=none;points=[[0,0.5],[1,0.5]];portConstraint=eastwest;fontSize=16;labelBackgroundColor=none;" vertex="1" parent="YqWiFZ8mhYs_TZGAp9Wk-4">
          <mxGeometry y="70" width="180" height="40" as="geometry" />
        </mxCell>
        <mxCell id="YqWiFZ8mhYs_TZGAp9Wk-10" value="" style="shape=partialRectangle;html=1;whiteSpace=wrap;connectable=0;overflow=hidden;fillColor=none;top=0;left=0;bottom=0;right=0;pointerEvents=1;fontSize=16;labelBackgroundColor=none;" vertex="1" parent="YqWiFZ8mhYs_TZGAp9Wk-9">
          <mxGeometry width="60" height="40" as="geometry">
            <mxRectangle width="60" height="40" as="alternateBounds" />
          </mxGeometry>
        </mxCell>
        <mxCell id="YqWiFZ8mhYs_TZGAp9Wk-11" value="" style="shape=partialRectangle;html=1;whiteSpace=wrap;connectable=0;overflow=hidden;fillColor=none;top=0;left=0;bottom=0;right=0;pointerEvents=1;fontSize=16;labelBackgroundColor=none;" vertex="1" parent="YqWiFZ8mhYs_TZGAp9Wk-9">
          <mxGeometry x="60" width="60" height="40" as="geometry">
            <mxRectangle width="60" height="40" as="alternateBounds" />
          </mxGeometry>
        </mxCell>
        <mxCell id="YqWiFZ8mhYs_TZGAp9Wk-12" value="" style="shape=partialRectangle;html=1;whiteSpace=wrap;connectable=0;overflow=hidden;fillColor=none;top=0;left=0;bottom=0;right=0;pointerEvents=1;fontSize=16;labelBackgroundColor=none;" vertex="1" parent="YqWiFZ8mhYs_TZGAp9Wk-9">
          <mxGeometry x="120" width="60" height="40" as="geometry">
            <mxRectangle width="60" height="40" as="alternateBounds" />
          </mxGeometry>
        </mxCell>
        <mxCell id="YqWiFZ8mhYs_TZGAp9Wk-13" value="" style="shape=tableRow;horizontal=0;startSize=0;swimlaneHead=0;swimlaneBody=0;top=0;left=0;bottom=0;right=0;collapsible=0;dropTarget=0;fillColor=none;points=[[0,0.5],[1,0.5]];portConstraint=eastwest;fontSize=16;labelBackgroundColor=none;" vertex="1" parent="YqWiFZ8mhYs_TZGAp9Wk-4">
          <mxGeometry y="110" width="180" height="40" as="geometry" />
        </mxCell>
        <mxCell id="YqWiFZ8mhYs_TZGAp9Wk-14" value="" style="shape=partialRectangle;html=1;whiteSpace=wrap;connectable=0;overflow=hidden;fillColor=none;top=0;left=0;bottom=0;right=0;pointerEvents=1;fontSize=16;labelBackgroundColor=none;" vertex="1" parent="YqWiFZ8mhYs_TZGAp9Wk-13">
          <mxGeometry width="60" height="40" as="geometry">
            <mxRectangle width="60" height="40" as="alternateBounds" />
          </mxGeometry>
        </mxCell>
        <mxCell id="YqWiFZ8mhYs_TZGAp9Wk-15" value="" style="shape=partialRectangle;html=1;whiteSpace=wrap;connectable=0;overflow=hidden;fillColor=none;top=0;left=0;bottom=0;right=0;pointerEvents=1;fontSize=16;labelBackgroundColor=none;" vertex="1" parent="YqWiFZ8mhYs_TZGAp9Wk-13">
          <mxGeometry x="60" width="60" height="40" as="geometry">
            <mxRectangle width="60" height="40" as="alternateBounds" />
          </mxGeometry>
        </mxCell>
        <mxCell id="YqWiFZ8mhYs_TZGAp9Wk-16" value="" style="shape=partialRectangle;html=1;whiteSpace=wrap;connectable=0;overflow=hidden;fillColor=none;top=0;left=0;bottom=0;right=0;pointerEvents=1;fontSize=16;labelBackgroundColor=none;" vertex="1" parent="YqWiFZ8mhYs_TZGAp9Wk-13">
          <mxGeometry x="120" width="60" height="40" as="geometry">
            <mxRectangle width="60" height="40" as="alternateBounds" />
          </mxGeometry>
        </mxCell>
        <mxCell id="YqWiFZ8mhYs_TZGAp9Wk-18" value="Log" style="swimlane;childLayout=stackLayout;horizontal=1;startSize=40;horizontalStack=0;rounded=1;fontSize=14;fontStyle=0;strokeWidth=2;resizeParent=0;resizeLast=1;shadow=0;dashed=0;align=center;arcSize=4;whiteSpace=wrap;html=1;labelBackgroundColor=none;" vertex="1" parent="1">
          <mxGeometry x="1721.43" y="30" width="180" height="190" as="geometry" />
        </mxCell>
        <mxCell id="YqWiFZ8mhYs_TZGAp9Wk-19" value="&lt;div style=&quot;&quot;&gt;&lt;div&gt;add_error_log:aText&lt;/div&gt;&lt;div&gt;add_warning_log:aText&lt;/div&gt;&lt;div&gt;add_info_log:aText&lt;/div&gt;&lt;div&gt;add_separator&lt;/div&gt;&lt;div&gt;print_logs&lt;/div&gt;&lt;div&gt;print_last_n_logs:aNumber&lt;/div&gt;&lt;div&gt;export_to_csv&lt;/div&gt;&lt;div&gt;clear_logs&lt;/div&gt;&lt;/div&gt;" style="align=left;strokeColor=none;fillColor=none;spacingLeft=4;fontSize=12;verticalAlign=top;resizable=0;rotatable=0;part=1;html=1;labelBackgroundColor=none;" vertex="1" parent="YqWiFZ8mhYs_TZGAp9Wk-18">
          <mxGeometry y="40" width="180" height="150" as="geometry" />
        </mxCell>
        <mxCell id="YqWiFZ8mhYs_TZGAp9Wk-22" value="" style="edgeStyle=orthogonalEdgeStyle;rounded=0;orthogonalLoop=1;jettySize=auto;html=1;exitX=0.298;exitY=0.96;exitDx=0;exitDy=0;exitPerimeter=0;entryX=0.499;entryY=0.014;entryDx=0;entryDy=0;entryPerimeter=0;" edge="1" parent="1" source="g9FJ7htBdy_WGRJoM1Vm-1" target="YqWiFZ8mhYs_TZGAp9Wk-20">
          <mxGeometry relative="1" as="geometry">
            <mxPoint x="1300" y="433" as="sourcePoint" />
            <mxPoint x="1280" y="700" as="targetPoint" />
            <Array as="points">
              <mxPoint x="1280" y="433" />
              <mxPoint x="1280" y="700" />
              <mxPoint x="1280" y="700" />
            </Array>
          </mxGeometry>
        </mxCell>
        <mxCell id="YqWiFZ8mhYs_TZGAp9Wk-20" value="DataPathController" style="swimlane;childLayout=stackLayout;horizontal=1;startSize=40;horizontalStack=0;rounded=1;fontSize=14;fontStyle=0;strokeWidth=2;resizeParent=0;resizeLast=1;shadow=0;dashed=0;align=center;arcSize=4;whiteSpace=wrap;html=1;labelBackgroundColor=none;" vertex="1" parent="1">
          <mxGeometry x="1120" y="700" width="320" height="190" as="geometry" />
        </mxCell>
        <mxCell id="YqWiFZ8mhYs_TZGAp9Wk-21" value="&lt;div style=&quot;&quot;&gt;&lt;div&gt;redefine_a_config_of_a_team:a_team_name, new_value&lt;/div&gt;&lt;div&gt;get_config_of_a_team:a_team_name&lt;/div&gt;&lt;/div&gt;" style="align=left;strokeColor=none;fillColor=none;spacingLeft=4;fontSize=12;verticalAlign=top;resizable=0;rotatable=0;part=1;html=1;labelBackgroundColor=none;" vertex="1" parent="YqWiFZ8mhYs_TZGAp9Wk-20">
          <mxGeometry y="40" width="320" height="150" as="geometry" />
        </mxCell>
        <mxCell id="YqWiFZ8mhYs_TZGAp9Wk-25" value="LogConsole" style="swimlane;childLayout=stackLayout;horizontal=1;startSize=40;horizontalStack=0;rounded=1;fontSize=14;fontStyle=0;strokeWidth=2;resizeParent=0;resizeLast=1;shadow=0;dashed=0;align=center;arcSize=4;whiteSpace=wrap;html=1;labelBackgroundColor=none;" vertex="1" parent="1">
          <mxGeometry x="650" y="595" width="170" height="190" as="geometry" />
        </mxCell>
        <mxCell id="YqWiFZ8mhYs_TZGAp9Wk-26" value="&lt;div&gt;&lt;span style=&quot;background-color: initial;&quot;&gt;show()&lt;/span&gt;&lt;/div&gt;&lt;div&gt;&lt;span style=&quot;background-color: initial;&quot;&gt;hide()&lt;/span&gt;&lt;/div&gt;&lt;div&gt;&lt;span style=&quot;background-color: initial;&quot;&gt;&lt;br&gt;&lt;/span&gt;&lt;/div&gt;&lt;div&gt;&lt;span style=&quot;background-color: initial;&quot;&gt;+export_logs_to_csv_button&lt;/span&gt;&lt;br&gt;&lt;/div&gt;" style="align=left;strokeColor=none;fillColor=none;spacingLeft=4;fontSize=12;verticalAlign=top;resizable=0;rotatable=0;part=1;html=1;labelBackgroundColor=none;" vertex="1" parent="YqWiFZ8mhYs_TZGAp9Wk-25">
          <mxGeometry y="40" width="170" height="150" as="geometry" />
        </mxCell>
        <mxCell id="YqWiFZ8mhYs_TZGAp9Wk-28" style="edgeStyle=orthogonalEdgeStyle;rounded=0;orthogonalLoop=1;jettySize=auto;html=1;entryX=0.647;entryY=0.98;entryDx=0;entryDy=0;entryPerimeter=0;" edge="1" parent="1" source="YqWiFZ8mhYs_TZGAp9Wk-25" target="jy5tY1eE1KtcGN1WyZTU-2">
          <mxGeometry relative="1" as="geometry">
            <Array as="points">
              <mxPoint x="1030" y="690" />
              <mxPoint x="1030" y="211" />
              <mxPoint x="1029" y="211" />
            </Array>
          </mxGeometry>
        </mxCell>
      </root>
    </mxGraphModel>
  </diagram>
</mxfile>
